<svg id="visual" viewBox="0 0 1920 1080" xmlns="http://www.w3.org/2000/svg" xmlns:xlink="http://www.w3.org/1999/xlink" version="1.1" opacity=".202"><g fill="#FFFFFF"><circle r="13" cx="621" cy="650"></circle><circle r="4.5" cx="1418" cy="687"></circle><circle r="4.5" cx="1028" cy="330"></circle><circle r="3.5" cx="1546" cy="528"></circle><circle r="19" cx="74" cy="757"></circle><circle r="17" cx="1613" cy="789"></circle><circle r="17" cx="796" cy="557"></circle><circle r="21" cx="1062" cy="402"></circle><circle r="10" cx="511" cy="38"></circle><circle r="7" cx="308" cy="416"></circle><circle r="10" cx="139" cy="160"></circle><circle r="7.5" cx="567" cy="604"></circle><circle r="7.5" cx="1276" cy="714"></circle><circle r="8" cx="179" cy="324"></circle><circle r="8" cx="640" cy="829"></circle><circle r="17" cx="1536" cy="105"></circle><circle r="15" cx="1284" cy="419"></circle><circle r="4.5" cx="973" cy="984"></circle><circle r="8" cx="1694" cy="352"></circle><circle r="11.5" cx="1233" cy="899"></circle><circle r="8" cx="1694" cy="10"></circle><circle r="16" cx="81" cy="815"></circle><circle r="12" cx="1352" cy="83"></circle><circle r="16" cx="365" cy="312"></circle><circle r="13" cx="161" cy="1037"></circle><circle r="18" cx="970" cy="682"></circle><circle r="9.5" cx="752" cy="393"></circle><circle r="8.5" cx="366" cy="119"></circle><circle r="4.5" cx="110" cy="859"></circle><circle r="9" cx="680" cy="873"></circle><circle r="14" cx="336" cy="526"></circle><circle r="8" cx="1868" cy="371"></circle><circle r="20" cx="1032" cy="1000"></circle><circle r="17" cx="1805" cy="625"></circle><circle r="5.5" cx="1074" cy="777"></circle><circle r="6" cx="415" cy="879"></circle><circle r="10" cx="1324" cy="29"></circle><circle r="14" cx="282" cy="65"></circle><circle r="12" cx="298" cy="291"></circle><circle r="5.5" cx="1531" cy="736"></circle><circle r="6.5" cx="1908" cy="825"></circle><circle r="10" cx="81" cy="11"></circle><circle r="4.5" cx="1722" cy="584"></circle><circle r="15" cx="316" cy="1007"></circle><circle r="22" cx="1528" cy="349"></circle><circle r="23" cx="1541" cy="1016"></circle><circle r="17" cx="1105" cy="89"></circle><circle r="6" cx="182" cy="229"></circle><circle r="11.5" cx="1362" cy="591"></circle><circle r="5.5" cx="478" cy="125"></circle><circle r="11" cx="1594" cy="850"></circle><circle r="5" cx="1321" cy="487"></circle><circle r="7" cx="293" cy="929"></circle><circle r="6" cx="1398" cy="948"></circle><circle r="8" cx="691" cy="606"></circle><circle r="8.5" cx="459" cy="735"></circle><circle r="6" cx="1388" cy="176"></circle><circle r="10" cx="776" cy="711"></circle><circle r="11.5" cx="1475" cy="916"></circle> </g></svg>