<svg id="visual" viewBox="0 0 1920 1080" width="1920" height="1080" xmlns="http://www.w3.org/2000/svg" xmlns:xlink="http://www.w3.org/1999/xlink" version="1.1"><g fill="#FFFFFF"><circle r="26" cx="167" cy="248"></circle><circle r="7" cx="1531" cy="815"></circle><circle r="6" cx="78" cy="486"></circle><circle r="23" cx="54" cy="562"></circle><circle r="18" cx="1493" cy="99"></circle><circle r="23" cx="760" cy="300"></circle><circle r="23" cx="45" cy="372"></circle><circle r="10" cx="493" cy="723"></circle><circle r="22" cx="486" cy="446"></circle><circle r="8" cx="441" cy="694"></circle><circle r="8" cx="1306" cy="526"></circle><circle r="24" cx="1335" cy="298"></circle><circle r="9" cx="1424" cy="191"></circle><circle r="19" cx="489" cy="200"></circle><circle r="16" cx="712" cy="745"></circle><circle r="7" cx="657" cy="261"></circle><circle r="14" cx="624" cy="1040"></circle><circle r="12" cx="217" cy="60"></circle><circle r="6" cx="811" cy="980"></circle><circle r="18" cx="1308" cy="383"></circle><circle r="15" cx="1067" cy="99"></circle><circle r="24" cx="309" cy="942"></circle><circle r="24" cx="975" cy="684"></circle><circle r="18" cx="846" cy="36"></circle><circle r="11" cx="1185" cy="999"></circle><circle r="12" cx="1901" cy="1012"></circle><circle r="15" cx="988" cy="444"></circle><circle r="11" cx="679" cy="368"></circle><circle r="6" cx="1429" cy="1012"></circle><circle r="24" cx="861" cy="353"></circle><circle r="7" cx="174" cy="653"></circle><circle r="24" cx="672" cy="27"></circle><circle r="14" cx="665" cy="607"></circle><circle r="14" cx="183" cy="173"></circle><circle r="16" cx="49" cy="783"></circle><circle r="22" cx="1756" cy="47"></circle><circle r="21" cx="1713" cy="512"></circle><circle r="23" cx="1034" cy="696"></circle><circle r="9" cx="1672" cy="651"></circle><circle r="22" cx="466" cy="113"></circle><circle r="8" cx="302" cy="446"></circle><circle r="22" cx="856" cy="473"></circle><circle r="18" cx="943" cy="329"></circle><circle r="6" cx="1121" cy="831"></circle><circle r="18" cx="1486" cy="513"></circle><circle r="21" cx="1760" cy="370"></circle><circle r="14" cx="594" cy="540"></circle><circle r="12" cx="269" cy="767"></circle><circle r="20" cx="1583" cy="63"></circle><circle r="17" cx="220" cy="624"></circle><circle r="19" cx="1796" cy="80"></circle><circle r="7" cx="1821" cy="398"></circle><circle r="21" cx="1252" cy="985"></circle><circle r="10" cx="1005" cy="871"></circle><circle r="8" cx="184" cy="844"></circle><circle r="8" cx="1806" cy="618"></circle><circle r="24" cx="1596" cy="322"></circle><circle r="19" cx="1068" cy="362"></circle><circle r="15" cx="995" cy="62"></circle></g></svg>